<?xml version="1.0" encoding="utf-8"?>
<!-- Generator: Adobe Illustrator 20.0.0, SVG Export Plug-In . SVG Version: 6.00 Build 0)  -->
<svg version="1.1" id="Lager_1" xmlns="http://www.w3.org/2000/svg" xmlns:xlink="http://www.w3.org/1999/xlink" x="0px" y="0px"
	 viewBox="0 0 400 150" style="enable-background:new 0 0 400 150;" xml:space="preserve">
<style type="text/css">
	.st0{fill:#1E1E1C;stroke:#FFFFFF;stroke-miterlimit:10;}
	.st1{fill:#1E1E1C;}
</style>
<path class="st0" d="M322.9,29.3L322.9,29.3L322.9,29.3c-17.4,23.5-17.4,61.6,0,85.1l0,0l0,0C340.3,90.9,340.3,52.8,322.9,29.3z"/>
<path class="st0" d="M301.3,34.4L301.3,34.4L301.3,34.4c-10.4,30.1-0.8,65.9,21.6,80v0l0,0C333.3,84.2,323.6,48.4,301.3,34.4z"/>
<path class="st0" d="M282.3,49.2L282.3,49.2L282.3,49.2c-2.1,33.1,16,62.3,40.6,65.2v0l0,0C325,81.3,306.9,52.1,282.3,49.2z"/>
<path class="st0" d="M276.2,70.8L276.2,70.8L276.2,70.8c6.4,32.1,30.8,51.2,54.6,42.6v0l0,0C324.5,81.3,300,62.2,276.2,70.8z"/>
<path class="st0" d="M344.4,34.4L344.4,34.4L344.4,34.4c-22.3,14-32,49.9-21.6,80l0,0l0,0C345.2,100.3,354.9,64.5,344.4,34.4z"/>
<path class="st0" d="M363.4,49.2L363.4,49.2L363.4,49.2c-24.5,2.9-42.7,32.1-40.6,65.2l0,0v0C347.4,111.5,365.6,82.3,363.4,49.2z"/>
<path class="st0" d="M369.5,71.8L369.5,71.8L369.5,71.8c-23.8-8.6-48.3,10.5-54.6,42.6l0,0v0C338.7,123,363.2,103.9,369.5,71.8z"/>
<g>
	<path class="st1" d="M29.8,37.3h246.4V53H52.6v11.7H88v15H52.6v14.5L276.2,95v16.7l-246.4-0.8V37.3z"/>
</g>
<g>
	<path class="st1" d="M88.6,55.7h11.9l8.3,26.5l8.2-26.5h11.5l-13.7,36.8h-12.3L88.6,55.7z"/>
	<path class="st1" d="M129,74.2c0-6,1.7-10.7,5-14c3.3-3.3,8-5,14-5c6.1,0,10.8,1.6,14.2,4.9c3.3,3.3,5,7.9,5,13.8
		c0,4.3-0.7,7.8-2.2,10.6c-1.4,2.8-3.5,4.9-6.3,6.4c-2.7,1.5-6.1,2.3-10.2,2.3c-4.2,0-7.6-0.7-10.3-2c-2.7-1.3-4.9-3.4-6.6-6.3
		C129.8,82,129,78.5,129,74.2z M140.4,74.2c0,3.7,0.7,6.4,2.1,8c1.4,1.6,3.3,2.4,5.6,2.4c2.4,0,4.3-0.8,5.7-2.4c1.3-1.6,2-4.4,2-8.6
		c0-3.5-0.7-6-2.1-7.6c-1.4-1.6-3.3-2.4-5.7-2.4c-2.3,0-4.1,0.8-5.5,2.4C141,67.8,140.4,70.5,140.4,74.2z"/>
	<path class="st1" d="M173.2,55.7h11.4v27.7h17.8v9.1h-29.1V55.7z"/>
	<path class="st1" d="M201.3,55.7h11.9l8.3,26.5l8.2-26.5h11.5l-13.7,36.8h-12.3L201.3,55.7z"/>
	<path class="st1" d="M244.9,55.7h30.5v7.9h-19.1v5.9H274v7.5h-17.7v7.3h19.6v8.3h-31V55.7z"/>
</g>
</svg>
