<?xml version="1.0" encoding="utf-8"?>
<!-- Generator: Adobe Illustrator 20.0.0, SVG Export Plug-In . SVG Version: 6.00 Build 0)  -->
<svg version="1.1" id="Lager_1" xmlns="http://www.w3.org/2000/svg" xmlns:xlink="http://www.w3.org/1999/xlink" x="0px" y="0px"
	 viewBox="0 0 960 560" style="enable-background:new 0 0 960 560;" xml:space="preserve">
<style type="text/css">
	.st0{fill:#1D1D1B;stroke:#FFFFFF;stroke-miterlimit:10;}
	.st1{fill:#1D1D1B;}
	.st2{font-family:'Arial-Black';}
	.st3{font-size:51.4243px;}
</style>
<path class="st0" d="M629.9,217.3L629.9,217.3L629.9,217.3c-17.4,23.5-17.4,61.6,0,85.1l0,0v0C647.3,278.9,647.3,240.8,629.9,217.3z
	"/>
<path class="st0" d="M608.3,222.4L608.3,222.4L608.3,222.4c-10.4,30.1-0.8,65.9,21.6,80l0,0v0C640.3,272.2,630.6,236.4,608.3,222.4z
	"/>
<path class="st0" d="M589.3,237.2L589.3,237.2L589.3,237.2c-2.1,33.1,16,62.3,40.6,65.2l0,0l0,0C632,269.3,613.9,240.1,589.3,237.2z
	"/>
<path class="st0" d="M583.2,258.8L583.2,258.8L583.2,258.8c6.4,32.1,30.8,51.2,54.6,42.6l0,0h0C631.5,269.3,607,250.2,583.2,258.8z"
	/>
<path class="st0" d="M651.4,222.4L651.4,222.4L651.4,222.4c-22.3,14-32,49.9-21.6,80l0,0v0C652.2,288.3,661.9,252.5,651.4,222.4z"/>
<path class="st0" d="M670.4,237.2L670.4,237.2L670.4,237.2c-24.5,2.9-42.7,32.1-40.6,65.2h0v0C654.4,299.5,672.6,270.3,670.4,237.2z
	"/>
<path class="st0" d="M675.5,258.8L675.5,258.8L675.5,258.8c-23.8-8.6-48.3,10.5-54.6,42.6l0,0v0C644.7,310,669.2,290.9,675.5,258.8z
	"/>
<g>
	<path class="st1" d="M336.8,224.3h246.4V240H359.6v11.7H395v15h-35.4v14.5l223.6,0.8v16.7l-246.4-0.8V224.3z"/>
</g>
<text transform="matrix(1 0 0 1 395.4028 279.541)" class="st1 st2 st3">VOLVE</text>
</svg>
